<?xml version="1.0" encoding="UTF-8" standalone="no"?>
<!DOCTYPE svg PUBLIC "-//W3C//DTD SVG 1.1//EN" "http://www.w3.org/Graphics/SVG/1.1/DTD/svg11.dtd">
<svg width="100%" height="100%" viewBox="0 0 24 24" version="1.1" xmlns="http://www.w3.org/2000/svg" xmlns:xlink="http://www.w3.org/1999/xlink" xml:space="preserve" xmlns:serif="http://www.serif.com/" style="fill-rule:evenodd;clip-rule:evenodd;stroke-linejoin:round;stroke-miterlimit:2;">
    <g>
        <g>
            <g transform="matrix(1.2,0,0,1.166667,-4.2,-0)">
                <path d="M16,6L11,12L16,18L21,12L16,6Z" style="fill:rgb(153,153,153);"/>
            </g>
            <g transform="matrix(1.142857,0,0,1,0.714286,-5)">
                <path d="M4.625,13L2,13L2,11L4.625,11L4.625,8L6.375,8L6.375,11L9,11L9,13L6.375,13L6.375,16L4.625,16L4.625,13Z" style="fill:rgb(153,153,153);"/>
            </g>
            <path d="M5,1L1,1L1,5L2,5L2,2L5,2L5,1Z" style="fill:rgb(153,153,153);"/>
            <g transform="matrix(0,1,-1,0,24,0)">
                <path d="M5,1L1,1L1,5L2,5L2,2L5,2L5,1Z" style="fill:rgb(153,153,153);"/>
            </g>
            <g transform="matrix(-1,0,-0,-1,24,24)">
                <path d="M5,1L1,1L1,5L2,5L2,2L5,2L5,1Z" style="fill:rgb(153,153,153);"/>
            </g>
            <g transform="matrix(0,-1,1,0,0,24)">
                <path d="M5,1L1,1L1,5L2,5L2,2L5,2L5,1Z" style="fill:rgb(153,153,153);"/>
            </g>
        </g>
    </g>
</svg>
