<?xml version="1.0" encoding="UTF-8" standalone="no"?>
<!DOCTYPE svg PUBLIC "-//W3C//DTD SVG 1.1//EN" "http://www.w3.org/Graphics/SVG/1.1/DTD/svg11.dtd">
<svg width="100%" height="100%" viewBox="0 0 24 24" version="1.1" xmlns="http://www.w3.org/2000/svg" xmlns:xlink="http://www.w3.org/1999/xlink" xml:space="preserve" xmlns:serif="http://www.serif.com/" style="fill-rule:evenodd;clip-rule:evenodd;stroke-linejoin:round;stroke-miterlimit:2;">
    <g>
        <g transform="matrix(0.027778,0,0,0.027778,-1.333333,25.333333)">
            <path d="M200,-120C178,-120 159.167,-127.833 143.5,-143.5C127.833,-159.167 120,-178 120,-200L120,-760C120,-782 127.833,-800.833 143.5,-816.5C159.167,-832.167 178,-840 200,-840L520,-840L520,-768L192,-768L192,-192L768,-192L768,-520L840,-520L840,-200C840,-178 832.167,-159.167 816.5,-143.5C800.833,-127.833 782,-120 760,-120L200,-120ZM264,-264L696,-264C696,-264 670.498,-319.091 624,-336C558,-360 402,-360 336,-336C289.502,-319.091 264,-264 264,-264ZM680,-600L680,-680L600,-680L600,-760L680,-760L680,-840L760,-840L760,-760L840,-760L840,-680L760,-680L760,-600L680,-600Z" style="fill:rgb(153,153,153);fill-rule:nonzero;"/>
        </g>
        <g transform="matrix(0.875,0,0,0.875,1.5,2.75)">
            <circle cx="12" cy="10" r="4" style="fill:rgb(153,153,153);"/>
        </g>
    </g>
</svg>
