<?xml version="1.0" encoding="UTF-8" standalone="no"?>
<!DOCTYPE svg PUBLIC "-//W3C//DTD SVG 1.1//EN" "http://www.w3.org/Graphics/SVG/1.1/DTD/svg11.dtd">
<svg width="100%" height="100%" viewBox="0 0 24 24" version="1.1" xmlns="http://www.w3.org/2000/svg" xmlns:xlink="http://www.w3.org/1999/xlink" xml:space="preserve" xmlns:serif="http://www.serif.com/" style="fill-rule:evenodd;clip-rule:evenodd;stroke-linejoin:round;stroke-miterlimit:2;">
    <g>
        <g>
            <g transform="matrix(1,0,0,0.972222,-0,3.500001)">
                <path d="M16,6L21,12L16,18L11,12L16,6ZM16,7.739L12.656,12L16,16.261L19.344,12L16,7.739Z" style="fill:rgb(153,153,153);"/>
            </g>
            <g transform="matrix(1,0,0,0.972222,-7.950795,-2.792726)">
                <path d="M16,6L11,12L16,18L21,12L16,6Z" style="fill:rgb(153,153,153);"/>
            </g>
            <path d="M5,1L1,1L1,5L2,5L2,2L5,2L5,1Z" style="fill:rgb(153,153,153);"/>
            <g transform="matrix(0,1,-1,0,24,0)">
                <path d="M5,1L1,1L1,5L2,5L2,2L5,2L5,1Z" style="fill:rgb(153,153,153);"/>
            </g>
            <g transform="matrix(-1,0,0,-1,24,24)">
                <path d="M5,1L1,1L1,5L2,5L2,2L5,2L5,1Z" style="fill:rgb(153,153,153);"/>
            </g>
            <g transform="matrix(0,-1,1,0,0,24)">
                <path d="M5,1L1,1L1,5L2,5L2,2L5,2L5,1Z" style="fill:rgb(153,153,153);"/>
            </g>
        </g>
    </g>
</svg>
