<?xml version="1.0" encoding="UTF-8" standalone="no"?>
<!DOCTYPE svg PUBLIC "-//W3C//DTD SVG 1.1//EN" "http://www.w3.org/Graphics/SVG/1.1/DTD/svg11.dtd">
<svg width="100%" height="100%" viewBox="0 0 24 24" version="1.1" xmlns="http://www.w3.org/2000/svg" xmlns:xlink="http://www.w3.org/1999/xlink" xml:space="preserve" xmlns:serif="http://www.serif.com/" style="fill-rule:evenodd;clip-rule:evenodd;stroke-linejoin:round;stroke-miterlimit:2;">
    <g transform="matrix(0.666667,0,0,0.666667,2.333333,2.333333)">
        <path d="M2.5,8.5L1,8.5L1,1L8.5,1L8.5,2.5L20.5,2.5L20.5,-2L31,-2L31,8.5L26.5,8.5L26.5,20.5L28,20.5L28,28L20.5,28L20.5,26.5L8.5,26.5L8.5,28L1,28L1,20.5L2.5,20.5L2.5,8.5ZM7,2.5L2.5,2.5L2.5,7L7,7L7,2.5ZM20.5,3.833L8.5,3.833L8.5,8.5L3.833,8.5L3.833,20.5L8.5,20.5L8.5,25.167L20.5,25.167L20.5,20.5L25.167,20.5L25.167,8.5L20.5,8.5L20.5,3.833ZM7,22L2.5,22L2.5,26.5L7,26.5L7,22ZM26.5,22L22,22L22,26.5L26.5,26.5L26.5,22Z" style="fill:rgb(153,153,153);"/>
    </g>
</svg>
