<?xml version="1.0" encoding="UTF-8" standalone="no"?>
<!DOCTYPE svg PUBLIC "-//W3C//DTD SVG 1.1//EN" "http://www.w3.org/Graphics/SVG/1.1/DTD/svg11.dtd">
<svg width="100%" height="100%" viewBox="0 0 24 24" version="1.1" xmlns="http://www.w3.org/2000/svg" xmlns:xlink="http://www.w3.org/1999/xlink" xml:space="preserve" xmlns:serif="http://www.serif.com/" style="fill-rule:evenodd;clip-rule:evenodd;stroke-linejoin:round;stroke-miterlimit:2;">
    <rect x="3" y="12" width="18" height="9" style="fill:rgb(153,153,153);"/>
    <path d="M3,3L6,3L6,4L4,4L4,6L3,6L3,3ZM3,8L4,8L4,11L3,11L3,8ZM16,3L16,4L13,4L13,3L16,3ZM11,3L11,4L8,4L8,3L11,3ZM21,3L21,6L20,6L20,4L18,4L18,3L21,3ZM21,8L21,11L20,11L20,8L21,8Z" style="fill:rgb(153,153,153);"/>
    <g transform="matrix(1,0,0,1,-8,0)">
        <path d="M11.5,2C12.328,2 13,2.672 13,3.5C13,4.328 12.328,5 11.5,5C10.672,5 10,4.328 10,3.5C10,2.672 10.672,2 11.5,2ZM28.5,2C29.328,2 30,2.672 30,3.5C30,4.328 29.328,5 28.5,5C27.672,5 27,4.328 27,3.5C27,2.672 27.672,2 28.5,2Z" style="fill:rgb(153,153,153);"/>
    </g>
    <g transform="matrix(1,0,0,1,-8,17)">
        <path d="M11.5,2C12.328,2 13,2.672 13,3.5C13,4.328 12.328,5 11.5,5C10.672,5 10,4.328 10,3.5C10,2.672 10.672,2 11.5,2ZM28.5,2C29.328,2 30,2.672 30,3.5C30,4.328 29.328,5 28.5,5C27.672,5 27,4.328 27,3.5C27,2.672 27.672,2 28.5,2Z" style="fill:rgb(153,153,153);"/>
    </g>
    <g transform="matrix(1,0,0,1,-8,8.5)">
        <path d="M11.5,2C12.328,2 13,2.672 13,3.5C13,4.328 12.328,5 11.5,5C10.672,5 10,4.328 10,3.5C10,2.672 10.672,2 11.5,2ZM28.5,2C29.328,2 30,2.672 30,3.5C30,4.328 29.328,5 28.5,5C27.672,5 27,4.328 27,3.5C27,2.672 27.672,2 28.5,2Z" style="fill:rgb(153,153,153);"/>
    </g>
</svg>
