<?xml version="1.0" encoding="UTF-8" standalone="no"?>
<!DOCTYPE svg PUBLIC "-//W3C//DTD SVG 1.1//EN" "http://www.w3.org/Graphics/SVG/1.1/DTD/svg11.dtd">
<svg width="100%" height="100%" viewBox="0 0 24 24" version="1.1" xmlns="http://www.w3.org/2000/svg" xmlns:xlink="http://www.w3.org/1999/xlink" xml:space="preserve" xmlns:serif="http://www.serif.com/" style="fill-rule:evenodd;clip-rule:evenodd;stroke-linejoin:round;stroke-miterlimit:2;">
    <g>
        <path d="M5,1L1,1L1,5L2,5L2,2L5,2L5,1Z" style="fill:rgb(153,153,153);"/>
        <g transform="matrix(0,1,-1,0,24,0)">
            <path d="M5,1L1,1L1,5L2,5L2,2L5,2L5,1Z" style="fill:rgb(153,153,153);"/>
        </g>
        <g transform="matrix(-1,0,-0,-1,24,24)">
            <path d="M5,1L1,1L1,5L2,5L2,2L5,2L5,1Z" style="fill:rgb(153,153,153);"/>
        </g>
        <g transform="matrix(0,-1,1,0,0,24)">
            <path d="M5,1L1,1L1,5L2,5L2,2L5,2L5,1Z" style="fill:rgb(153,153,153);"/>
        </g>
        <g transform="matrix(1.06066,-1.06066,0.785674,0.785674,-8.073976,10.446839)">
            <path d="M7,8L7,14.3L14.333,14.3L14.333,17L5,17L5,8L7,8Z" style="fill:rgb(153,153,153);"/>
        </g>
    </g>
</svg>
