<?xml version="1.0" encoding="UTF-8" standalone="no"?>
<!DOCTYPE svg PUBLIC "-//W3C//DTD SVG 1.1//EN" "http://www.w3.org/Graphics/SVG/1.1/DTD/svg11.dtd">
<svg width="100%" height="100%" viewBox="0 0 24 24" version="1.1" xmlns="http://www.w3.org/2000/svg" xmlns:xlink="http://www.w3.org/1999/xlink" xml:space="preserve" xmlns:serif="http://www.serif.com/" style="fill-rule:evenodd;clip-rule:evenodd;stroke-linejoin:round;stroke-miterlimit:2;">
    <g transform="matrix(-1,0,0,1,24,0)">
        <path d="M21.8,1C22.118,1 22.423,1.126 22.649,1.351C22.874,1.577 23,1.882 23,2.2L23,21.8C23,22.118 22.874,22.423 22.649,22.649C22.423,22.874 22.118,23 21.8,23L2.2,23C1.882,23 1.577,22.874 1.351,22.649C1.126,22.423 1,22.118 1,21.8L1,2.2C1,1.882 1.126,1.577 1.351,1.351C1.577,1.126 1.882,1 2.2,1L21.8,1ZM13.024,11.219L5.625,5.3C5.325,5.06 4.913,5.013 4.567,5.179C4.22,5.346 4,5.696 4,6.081L4,17.919C4,18.304 4.22,18.654 4.567,18.821C4.913,18.987 5.325,18.94 5.625,18.7L13.024,12.781C13.261,12.591 13.399,12.304 13.399,12C13.399,11.696 13.261,11.409 13.024,11.219ZM20,3L16,3L16,21L20,21L20,3Z" style="fill:rgb(153,153,153);"/>
    </g>
</svg>
