<?xml version="1.0" encoding="UTF-8" standalone="no"?>
<!DOCTYPE svg PUBLIC "-//W3C//DTD SVG 1.1//EN" "http://www.w3.org/Graphics/SVG/1.1/DTD/svg11.dtd">
<svg width="100%" height="100%" viewBox="0 0 24 24" version="1.1" xmlns="http://www.w3.org/2000/svg" xmlns:xlink="http://www.w3.org/1999/xlink" xml:space="preserve" xmlns:serif="http://www.serif.com/" style="fill-rule:evenodd;clip-rule:evenodd;stroke-linejoin:round;stroke-miterlimit:2;">
    <path d="M13.16,3L21,3L21,16L16,21L13.646,21C13.453,21.441 13.012,21.75 12.5,21.75C11.988,21.75 11.547,21.441 11.354,21L3,21L3,8L8,3L10.84,3C11.025,2.541 11.475,2.217 12,2.217C12.525,2.217 12.975,2.541 13.16,3ZM10.869,4L8.5,4L4.5,8L6.354,8C6.547,7.559 6.988,7.25 7.5,7.25C7.578,7.25 7.655,7.257 7.729,7.271L10.914,4.086C10.898,4.058 10.883,4.029 10.869,4ZM6.354,9L4,9L4,20L11.354,20C11.444,19.795 11.588,19.618 11.767,19.488L7.336,9.739C6.895,9.681 6.526,9.393 6.354,9ZM8.233,9.512L12.664,19.261C13.105,19.319 13.474,19.607 13.646,20L15,20L15,9L8.646,9C8.556,9.205 8.412,9.382 8.233,9.512ZM8.646,8L15,8L19,4L13.131,4C12.93,4.423 12.499,4.717 12,4.717C11.932,4.717 11.865,4.711 11.799,4.701L8.598,7.902C8.615,7.934 8.631,7.967 8.646,8ZM16,9L16,19.5L20,15.5L20,5L16,9Z" style="fill:rgb(153,153,153);"/>
</svg>
