<?xml version="1.0" encoding="UTF-8" standalone="no"?>
<!DOCTYPE svg PUBLIC "-//W3C//DTD SVG 1.1//EN" "http://www.w3.org/Graphics/SVG/1.1/DTD/svg11.dtd">
<svg width="100%" height="100%" viewBox="0 0 24 24" version="1.1" xmlns="http://www.w3.org/2000/svg" xmlns:xlink="http://www.w3.org/1999/xlink" xml:space="preserve" xmlns:serif="http://www.serif.com/" style="fill-rule:evenodd;clip-rule:evenodd;stroke-linejoin:round;stroke-miterlimit:2;">
    <path d="M16,21L3,21L3,8L8,3L21,3L21,16L16,21ZM13,4L8.5,4L4.5,8L9,8L13,4ZM9,9L4,9L4,20L9,20L9,9ZM10,20L15,20L15,9L10,9L10,20ZM10.5,8L15,8L19,4L14.5,4L10.5,8ZM16,9L16,19.5L20,15.5L20,5L16,9Z" style="fill:rgb(153,153,153);"/>
</svg>
