<?xml version="1.0" encoding="UTF-8" standalone="no"?>
<!DOCTYPE svg PUBLIC "-//W3C//DTD SVG 1.1//EN" "http://www.w3.org/Graphics/SVG/1.1/DTD/svg11.dtd">
<svg width="100%" height="100%" viewBox="0 0 24 24" version="1.1" xmlns="http://www.w3.org/2000/svg" xmlns:xlink="http://www.w3.org/1999/xlink" xml:space="preserve" xmlns:serif="http://www.serif.com/" style="fill-rule:evenodd;clip-rule:evenodd;stroke-linejoin:round;stroke-miterlimit:2;">
    <g transform="matrix(1,0,0,1,1,-1)">
        <path d="M2,16L3,16L3,21L8,21L8,22L2,22L2,16ZM8,4L8,5L3,5L3,10L2,10L2,4L8,4ZM20,10L19,10L19,5L14,5L14,4L20,4L20,10ZM14,22L14,21L19,21L19,16L20,16L20,22L14,22ZM17,7L17,19L5,19L5,7L17,7Z" style="fill:rgb(153,153,153);"/>
    </g>
</svg>
