<?xml version="1.0" encoding="UTF-8" standalone="no"?>
<!DOCTYPE svg PUBLIC "-//W3C//DTD SVG 1.1//EN" "http://www.w3.org/Graphics/SVG/1.1/DTD/svg11.dtd">
<svg width="100%" height="100%" viewBox="0 0 24 24" version="1.1" xmlns="http://www.w3.org/2000/svg" xmlns:xlink="http://www.w3.org/1999/xlink" xml:space="preserve" xmlns:serif="http://www.serif.com/" style="fill-rule:evenodd;clip-rule:evenodd;stroke-linejoin:round;stroke-miterlimit:2;">
    <g>
        <path d="M21.8,1C22.118,1 22.423,1.126 22.649,1.351C22.874,1.577 23,1.882 23,2.2C23,6.035 23,17.965 23,21.8C23,22.118 22.874,22.423 22.649,22.649C22.423,22.874 22.118,23 21.8,23C17.965,23 6.035,23 2.2,23C1.882,23 1.577,22.874 1.351,22.649C1.126,22.423 1,22.118 1,21.8C1,17.965 1,6.035 1,2.2C1,1.882 1.126,1.577 1.351,1.351C1.577,1.126 1.882,1 2.2,1L21.8,1ZM16.024,11.219L8.625,5.3C8.325,5.06 7.913,5.013 7.567,5.179C7.22,5.346 7,5.696 7,6.081L7,17.919C7,18.304 7.22,18.654 7.567,18.821C7.913,18.987 8.325,18.94 8.625,18.7L16.024,12.781C16.261,12.591 16.399,12.304 16.399,12C16.399,11.696 16.261,11.409 16.024,11.219Z" style="fill:rgb(153,153,153);"/>
    </g>
</svg>
