<?xml version="1.0" encoding="UTF-8" standalone="no"?>
<!DOCTYPE svg PUBLIC "-//W3C//DTD SVG 1.1//EN" "http://www.w3.org/Graphics/SVG/1.1/DTD/svg11.dtd">
<svg width="100%" height="100%" viewBox="0 0 24 24" version="1.1" xmlns="http://www.w3.org/2000/svg" xmlns:xlink="http://www.w3.org/1999/xlink" xml:space="preserve" xmlns:serif="http://www.serif.com/" style="fill-rule:evenodd;clip-rule:evenodd;stroke-linejoin:round;stroke-miterlimit:2;">
    <path d="M22,2L22,22L2,22L2,2L22,2ZM8,3L3,3L3,21L21,21L21,16L18,16L18,15L21,15L21,3L9,3L9,6L8,6L8,3ZM15,13L15,15L17,15L17,16L14,16L14,13L15,13ZM9,7L9,9L11,9L11,10L8,10L8,7L9,7ZM12,9L15,9L15,12L14,12L14,10L12,10L12,9Z" style="fill:rgb(153,153,153);"/>
</svg>
