<?xml version="1.0" encoding="UTF-8" standalone="no"?>
<!DOCTYPE svg PUBLIC "-//W3C//DTD SVG 1.1//EN" "http://www.w3.org/Graphics/SVG/1.1/DTD/svg11.dtd">
<svg width="100%" height="100%" viewBox="0 0 24 24" version="1.1" xmlns="http://www.w3.org/2000/svg" xmlns:xlink="http://www.w3.org/1999/xlink" xml:space="preserve" xmlns:serif="http://www.serif.com/" style="fill-rule:evenodd;clip-rule:evenodd;stroke-linejoin:round;stroke-miterlimit:2;">
    <g>
        <path d="M16,2L22,2L22,8L21,8L21,3L16,3L16,2ZM8,22L2,22L2,16L3,16L3,21L8,21L8,22Z" style="fill:rgb(153,153,153);"/>
        <g transform="matrix(1.111111,0,0,1.111111,1.444444,1.444444)">
            <path d="M5,6.8L5,5L6.8,5L6.8,6.8L5,6.8ZM8.6,5L14,5L14,14L5,14L5,8.6L6.8,8.6L6.8,10.4L8.6,10.4L8.6,8.6L10.4,8.6L10.4,6.8L8.6,6.8L8.6,5ZM8.6,6.8L8.6,8.6L6.8,8.6L6.8,6.8L8.6,6.8Z" style="fill:rgb(153,153,153);"/>
        </g>
    </g>
</svg>
