<?xml version="1.0" encoding="UTF-8" standalone="no"?>
<!DOCTYPE svg PUBLIC "-//W3C//DTD SVG 1.1//EN" "http://www.w3.org/Graphics/SVG/1.1/DTD/svg11.dtd">
<svg width="100%" height="100%" viewBox="0 0 24 24" version="1.1" xmlns="http://www.w3.org/2000/svg" xmlns:xlink="http://www.w3.org/1999/xlink" xml:space="preserve" xmlns:serif="http://www.serif.com/" style="fill-rule:evenodd;clip-rule:evenodd;stroke-linejoin:round;stroke-miterlimit:2;">
    <g>
        <g>
            <g transform="matrix(1,0,0,0.5,0,6)">
                <path d="M18.784,6.614C20.761,9.236 22,12 22,12C22,12 17.519,22 12,22C6.481,22 2,12 2,12C2,12 3.239,9.236 5.216,6.614L3.884,2L5.616,0L6.945,4.602C8.157,3.388 9.532,2.421 11,2.108L11,-2.402L13,-2.402L13,2.108C14.468,2.421 15.843,3.388 17.055,4.602L18.384,0L20.116,2L18.784,6.614ZM12,5C7.585,5 4,12 4,12C4,12 7.585,19 12,19C16.415,19 20,12 20,12C20,12 16.415,5 12,5Z" style="fill:rgb(153,153,153);"/>
            </g>
            <circle cx="12" cy="12" r="4" style="fill:rgb(153,153,153);"/>
        </g>
        <path d="M5,1L1,1L1,5L2,5L2,2L5,2L5,1Z" style="fill:rgb(153,153,153);"/>
        <g transform="matrix(0,1,-1,0,24,0)">
            <path d="M5,1L1,1L1,5L2,5L2,2L5,2L5,1Z" style="fill:rgb(153,153,153);"/>
        </g>
        <g transform="matrix(-1,0,-0,-1,24,24)">
            <path d="M5,1L1,1L1,5L2,5L2,2L5,2L5,1Z" style="fill:rgb(153,153,153);"/>
        </g>
        <g transform="matrix(0,-1,1,0,0,24)">
            <path d="M5,1L1,1L1,5L2,5L2,2L5,2L5,1Z" style="fill:rgb(153,153,153);"/>
        </g>
    </g>
</svg>
